<svg id="visual" viewBox="0 0 900 600" width="900" height="600" xmlns="http://www.w3.org/2000/svg" xmlns:xlink="http://www.w3.org/1999/xlink" version="1.1"><rect x="0" y="0" width="900" height="600" fill="#001220"></rect><defs><linearGradient id="grad1_0" x1="33.3%" y1="0%" x2="100%" y2="100%"><stop offset="20%" stop-color="#fbae3c" stop-opacity="1"></stop><stop offset="80%" stop-color="#fbae3c" stop-opacity="1"></stop></linearGradient></defs><defs><linearGradient id="grad1_1" x1="33.3%" y1="0%" x2="100%" y2="100%"><stop offset="20%" stop-color="#fbae3c" stop-opacity="1"></stop><stop offset="80%" stop-color="#e1685e" stop-opacity="1"></stop></linearGradient></defs><defs><linearGradient id="grad1_2" x1="33.3%" y1="0%" x2="100%" y2="100%"><stop offset="20%" stop-color="#96446e" stop-opacity="1"></stop><stop offset="80%" stop-color="#e1685e" stop-opacity="1"></stop></linearGradient></defs><defs><linearGradient id="grad1_3" x1="33.3%" y1="0%" x2="100%" y2="100%"><stop offset="20%" stop-color="#96446e" stop-opacity="1"></stop><stop offset="80%" stop-color="#3d3056" stop-opacity="1"></stop></linearGradient></defs><defs><linearGradient id="grad1_4" x1="33.3%" y1="0%" x2="100%" y2="100%"><stop offset="20%" stop-color="#001220" stop-opacity="1"></stop><stop offset="80%" stop-color="#3d3056" stop-opacity="1"></stop></linearGradient></defs><defs><linearGradient id="grad2_0" x1="0%" y1="0%" x2="66.7%" y2="100%"><stop offset="20%" stop-color="#fbae3c" stop-opacity="1"></stop><stop offset="80%" stop-color="#fbae3c" stop-opacity="1"></stop></linearGradient></defs><defs><linearGradient id="grad2_1" x1="0%" y1="0%" x2="66.7%" y2="100%"><stop offset="20%" stop-color="#e1685e" stop-opacity="1"></stop><stop offset="80%" stop-color="#fbae3c" stop-opacity="1"></stop></linearGradient></defs><defs><linearGradient id="grad2_2" x1="0%" y1="0%" x2="66.7%" y2="100%"><stop offset="20%" stop-color="#e1685e" stop-opacity="1"></stop><stop offset="80%" stop-color="#96446e" stop-opacity="1"></stop></linearGradient></defs><defs><linearGradient id="grad2_3" x1="0%" y1="0%" x2="66.7%" y2="100%"><stop offset="20%" stop-color="#3d3056" stop-opacity="1"></stop><stop offset="80%" stop-color="#96446e" stop-opacity="1"></stop></linearGradient></defs><defs><linearGradient id="grad2_4" x1="0%" y1="0%" x2="66.7%" y2="100%"><stop offset="20%" stop-color="#3d3056" stop-opacity="1"></stop><stop offset="80%" stop-color="#001220" stop-opacity="1"></stop></linearGradient></defs><g transform="translate(900, 0)"><path d="M0 459.7C-46.9 450.9 -93.8 442.1 -139.4 428.9C-184.9 415.7 -229.1 398.2 -270.2 371.9C-311.3 345.6 -349.3 310.6 -369.7 268.6C-390.2 226.6 -393.1 177.6 -405.2 131.6C-417.2 85.7 -438.5 42.9 -459.7 0L0 0Z" fill="#18223c"></path><path d="M0 367.8C-37.5 360.7 -75.1 353.7 -111.5 343.1C-147.9 332.6 -183.3 318.6 -216.2 297.5C-249 276.5 -279.4 248.5 -295.8 214.9C-312.1 181.3 -314.5 142.1 -324.1 105.3C-333.8 68.6 -350.8 34.3 -367.8 0L0 0Z" fill="#683a67"></path><path d="M0 275.8C-28.1 270.5 -56.3 265.3 -83.6 257.4C-111 249.4 -137.5 238.9 -162.1 223.1C-186.8 207.4 -209.6 186.4 -221.8 161.2C-234.1 136 -235.8 106.5 -243.1 79C-250.3 51.4 -263.1 25.7 -275.8 0L0 0Z" fill="#c0526a"></path><path d="M0 183.9C-18.8 180.4 -37.5 176.8 -55.7 171.6C-74 166.3 -91.6 159.3 -108.1 148.8C-124.5 138.3 -139.7 124.3 -147.9 107.4C-156.1 90.6 -157.2 71 -162.1 52.7C-166.9 34.3 -175.4 17.1 -183.9 0L0 0Z" fill="#f6884d"></path><path d="M0 91.9C-9.4 90.2 -18.8 88.4 -27.9 85.8C-37 83.1 -45.8 79.6 -54 74.4C-62.3 69.1 -69.9 62.1 -73.9 53.7C-78 45.3 -78.6 35.5 -81 26.3C-83.4 17.1 -87.7 8.6 -91.9 0L0 0Z" fill="#fbae3c"></path></g><g transform="translate(0, 600)"><path d="M0 -459.7C48.5 -456.3 97 -452.8 142.1 -437.2C187.1 -421.6 228.6 -393.7 262.2 -360.8C295.7 -327.9 321.2 -290 347.9 -252.7C374.6 -215.5 402.5 -178.9 421.3 -136.9C440.2 -94.9 449.9 -47.4 459.7 0L0 0Z" fill="#18223c"></path><path d="M0 -367.8C38.8 -365 77.6 -362.3 113.6 -349.8C149.7 -337.3 182.9 -315 209.7 -288.7C236.5 -262.3 256.9 -232 278.3 -202.2C299.7 -172.4 322 -143.1 337.1 -109.5C352.1 -75.9 359.9 -38 367.8 0L0 0Z" fill="#683a67"></path><path d="M0 -275.8C29.1 -273.8 58.2 -271.7 85.2 -262.3C112.3 -252.9 137.2 -236.2 157.3 -216.5C177.4 -196.8 192.7 -174 208.7 -151.6C224.7 -129.3 241.5 -107.3 252.8 -82.1C264.1 -56.9 270 -28.5 275.8 0L0 0Z" fill="#c0526a"></path><path d="M0 -183.9C19.4 -182.5 38.8 -181.1 56.8 -174.9C74.8 -168.6 91.5 -157.5 104.9 -144.3C118.3 -131.2 128.5 -116 139.2 -101.1C149.8 -86.2 161 -71.6 168.5 -54.8C176.1 -38 180 -19 183.9 0L0 0Z" fill="#f6884d"></path><path d="M0 -91.9C9.7 -91.3 19.4 -90.6 28.4 -87.4C37.4 -84.3 45.7 -78.7 52.4 -72.2C59.1 -65.6 64.2 -58 69.6 -50.5C74.9 -43.1 80.5 -35.8 84.3 -27.4C88 -19 90 -9.5 91.9 0L0 0Z" fill="#fbae3c"></path></g></svg>