<svg id="visual" viewBox="0 0 900 600" width="900" height="600" xmlns="http://www.w3.org/2000/svg" xmlns:xlink="http://www.w3.org/1999/xlink" version="1.1"><path d="M0 475L10.7 474.3C21.3 473.7 42.7 472.3 64.2 467.2C85.7 462 107.3 453 128.8 451.2C150.3 449.3 171.7 454.7 193 461C214.3 467.3 235.7 474.7 257 474.3C278.3 474 299.7 466 321.2 462.8C342.7 459.7 364.3 461.3 385.8 461.3C407.3 461.3 428.7 459.7 450 461.5C471.3 463.3 492.7 468.7 514.2 467C535.7 465.3 557.3 456.7 578.8 458.8C600.3 461 621.7 474 643 478.7C664.3 483.3 685.7 479.7 707 474.3C728.3 469 749.7 462 771.2 457.8C792.7 453.7 814.3 452.3 835.8 454.8C857.3 457.3 878.7 463.7 889.3 466.8L900 470L900 601L889.3 601C878.7 601 857.3 601 835.8 601C814.3 601 792.7 601 771.2 601C749.7 601 728.3 601 707 601C685.7 601 664.3 601 643 601C621.7 601 600.3 601 578.8 601C557.3 601 535.7 601 514.2 601C492.7 601 471.3 601 450 601C428.7 601 407.3 601 385.8 601C364.3 601 342.7 601 321.2 601C299.7 601 278.3 601 257 601C235.7 601 214.3 601 193 601C171.7 601 150.3 601 128.8 601C107.3 601 85.7 601 64.2 601C42.7 601 21.3 601 10.7 601L0 601Z" fill="#c62368"></path><path d="M0 479L10.7 484.3C21.3 489.7 42.7 500.3 64.2 499.2C85.7 498 107.3 485 128.8 480C150.3 475 171.7 478 193 486.2C214.3 494.3 235.7 507.7 257 507.3C278.3 507 299.7 493 321.2 487.8C342.7 482.7 364.3 486.3 385.8 494.5C407.3 502.7 428.7 515.3 450 515.3C471.3 515.3 492.7 502.7 514.2 495C535.7 487.3 557.3 484.7 578.8 491.8C600.3 499 621.7 516 643 523.2C664.3 530.3 685.7 527.7 707 517.8C728.3 508 749.7 491 771.2 491C792.7 491 814.3 508 835.8 509.8C857.3 511.7 878.7 498.3 889.3 491.7L900 485L900 601L889.3 601C878.7 601 857.3 601 835.8 601C814.3 601 792.7 601 771.2 601C749.7 601 728.3 601 707 601C685.7 601 664.3 601 643 601C621.7 601 600.3 601 578.8 601C557.3 601 535.7 601 514.2 601C492.7 601 471.3 601 450 601C428.7 601 407.3 601 385.8 601C364.3 601 342.7 601 321.2 601C299.7 601 278.3 601 257 601C235.7 601 214.3 601 193 601C171.7 601 150.3 601 128.8 601C107.3 601 85.7 601 64.2 601C42.7 601 21.3 601 10.7 601L0 601Z" fill="#e43752"></path><path d="M0 530L10.7 527.2C21.3 524.3 42.7 518.7 64.2 519.2C85.7 519.7 107.3 526.3 128.8 525.7C150.3 525 171.7 517 193 518.5C214.3 520 235.7 531 257 537.3C278.3 543.7 299.7 545.3 321.2 548.2C342.7 551 364.3 555 385.8 553.2C407.3 551.3 428.7 543.7 450 541.5C471.3 539.3 492.7 542.7 514.2 539.5C535.7 536.3 557.3 526.7 578.8 520.5C600.3 514.3 621.7 511.7 643 516.8C664.3 522 685.7 535 707 543.7C728.3 552.3 749.7 556.7 771.2 552.3C792.7 548 814.3 535 835.8 528.5C857.3 522 878.7 522 889.3 522L900 522L900 601L889.3 601C878.7 601 857.3 601 835.8 601C814.3 601 792.7 601 771.2 601C749.7 601 728.3 601 707 601C685.7 601 664.3 601 643 601C621.7 601 600.3 601 578.8 601C557.3 601 535.7 601 514.2 601C492.7 601 471.3 601 450 601C428.7 601 407.3 601 385.8 601C364.3 601 342.7 601 321.2 601C299.7 601 278.3 601 257 601C235.7 601 214.3 601 193 601C171.7 601 150.3 601 128.8 601C107.3 601 85.7 601 64.2 601C42.7 601 21.3 601 10.7 601L0 601Z" fill="#f55936"></path><path d="M0 562L10.7 565.3C21.3 568.7 42.7 575.3 64.2 579.2C85.7 583 107.3 584 128.8 578.8C150.3 573.7 171.7 562.3 193 561.8C214.3 561.3 235.7 571.7 257 570.8C278.3 570 299.7 558 321.2 552.5C342.7 547 364.3 548 385.8 550.2C407.3 552.3 428.7 555.7 450 557.3C471.3 559 492.7 559 514.2 562.5C535.7 566 557.3 573 578.8 572.2C600.3 571.3 621.7 562.7 643 561C664.3 559.3 685.7 564.7 707 563.8C728.3 563 749.7 556 771.2 552.7C792.7 549.3 814.3 549.7 835.8 551.7C857.3 553.7 878.7 557.3 889.3 559.2L900 561L900 601L889.3 601C878.7 601 857.3 601 835.8 601C814.3 601 792.7 601 771.2 601C749.7 601 728.3 601 707 601C685.7 601 664.3 601 643 601C621.7 601 600.3 601 578.8 601C557.3 601 535.7 601 514.2 601C492.7 601 471.3 601 450 601C428.7 601 407.3 601 385.8 601C364.3 601 342.7 601 321.2 601C299.7 601 278.3 601 257 601C235.7 601 214.3 601 193 601C171.7 601 150.3 601 128.8 601C107.3 601 85.7 601 64.2 601C42.7 601 21.3 601 10.7 601L0 601Z" fill="#f77f00"></path></svg>