<svg width="42" height="42" viewBox="0 0 42 42" fill="none" xmlns="http://www.w3.org/2000/svg">
<path d="M9.20641 7.17552L10.4697 0H13.1023L10.7648 11.4431H8.01117L6.53602 4.91991L5.09114 11.4431H2.3451L0 0H2.64013L3.90346 7.17552L5.41643 0H7.67075L9.20641 7.17552Z" fill="#EBE0CA"/>
<path d="M20.062 9.30539H16.4233L15.7878 11.4431H12.951L16.9906 0H19.487L23.5569 11.4431H20.705L20.062 9.30539ZM17.0587 7.17552H19.4265L18.2388 3.20659L17.0587 7.17552Z" fill="#EBE0CA"/>
<path d="M27.0216 9.32111H31.6437V11.4431H24.3664V0H27.0216V9.32111Z" fill="#EBE0CA"/>
<path d="M36.5079 7.18338L35.4186 8.42515V11.4431H32.7633V0H35.4186V5.04566L36.3415 3.59169L38.7169 0H42L38.2781 5.06138L42 11.4431H38.853L36.5079 7.18338Z" fill="#EBE0CA"/>
<path d="M5.32733 15.2784L7.7859 23.2399L10.2369 15.2784H13.7319V26.7216H11.069V24.0494L11.3262 18.5793L8.66342 26.7216H6.90838L4.23799 18.5715L4.4952 24.0494V26.7216H1.83994V15.2784H5.32733Z" fill="#EBE0CA"/>
<path d="M19.2466 20.2455L21.274 15.2784H24.1411L20.5932 22.6112V26.7216H17.9001V22.6112L14.3598 15.2784H17.2117L19.2466 20.2455Z" fill="#EBE0CA"/>
<path d="M4.4952 39.878H9.11732V42H1.83994V30.5569H4.4952V39.878Z" fill="#EBE0CA"/>
<path d="M13.0662 42H10.4185V30.5569H13.0662V42Z" fill="#EBE0CA"/>
<path d="M24.1108 42H21.4707L17.5672 34.8795V42H14.912V30.5569H17.5672L21.4631 37.6774V30.5569H24.1108V42Z" fill="#EBE0CA"/>
<path d="M32.6213 37.1508H28.4455V39.878H33.3778V42H25.7902V30.5569H33.3929V32.6868H28.4455V35.0996H32.6213V37.1508Z" fill="#EBE0CA"/>
</svg>
